# xmcd
#
# Track frame offsets:
#	150
#	13975
#	32125
#	45787
#	58375
#	69337
#	80537
#	92875
#	103812
#	116462
#	130437
#	143800
#	155037
#	170737
#	183512
#	198237
#
# Disc length: 2884
#
# Revision: 3
# Processed by: cddbd v1.5.1PL0 Copyright (c) Steve Scherf et al.
# Submitted via: DiscPlay 4.0.3
# Normalized: r1:TDELIM( - );r2:TSWAP
#
DISCID=e60b4210
DTITLE=All Original - Unforgettable Goldies Volume 1
DYEAR=1900
DGENRE=
TTITLE0=Robby Helms - My Special Angel
TTITLE1=Mills Brothers - Till Then
TTITLE2=Al Hibbler - Unchained Melody
TTITLE3=Patsy Cline - Crazy
TTITLE4=Jane Morgan - Fascination
TTITLE5=Bob Braun - Till Death Do Us Part
TTITLE6=Bob Braun - Why Do I Love You
TTITLE7=Bob Braun - Our Anniversary Of Love
TTITLE8=Brian Hyland - Sealed With A Kiss
TTITLE9=Teresa Brewer - Till I Waltz Again With You
TTITLE10=Bobby Helms - Fraulein
TTITLE11=Burl Ives - Pearly Shells
TTITLE12=Mills Brothers - You Always Hurt The One You Love
TTITLE13=Ink Spots - The Gypsy
TTITLE14=Ink Spots - It's A Sin to Tell A Lie
TTITLE15=Earl Grant - Ebb Tide
EXTD=
EXTT0=
EXTT1=
EXTT2=
EXTT3=
EXTT4=
EXTT5=
EXTT6=
EXTT7=
EXTT8=
EXTT9=
EXTT10=
EXTT11=
EXTT12=
EXTT13=
EXTT14=
EXTT15=
PLAYORDER=
